<?xml version="1.0" encoding="utf-8"?>
<!-- Generator: Adobe Illustrator 26.0.0, SVG Export Plug-In . SVG Version: 6.00 Build 0)  -->
<svg version="1.2" baseProfile="tiny" id="katman_1"
	 xmlns="http://www.w3.org/2000/svg" xmlns:xlink="http://www.w3.org/1999/xlink" x="0px" y="0px" viewBox="0 0 508.5 279.3"
	 overflow="visible" xml:space="preserve">
<g>
	<path fill="#293E55" d="M271.8,159.2c6.9,0,13,0,19.7,0c9.9,20.4,19.8,40.8,30,61.6c-6.3,0-11.9,0-18,0c-1.8-3.9-3.7-8.1-5.7-12.4
		c-9.5,0-19.2,0-28.9,0c-2.6,1.7-3.9,4.2-4.6,7.2c-1.1,4.9-2,5.5-7,5.4c-3.9,0-7.8,0-11.9,0c0-0.9-0.2-1.7,0-2.3
		C254.2,198.8,263.1,178.8,271.8,159.2z M281.7,174.1c-3.3,8-6.4,15.4-9.6,23.2c7.2,0,13.7,0,20.5,0c-2.9-6.6-5.6-12.7-8.4-18.9
		C283.7,177.1,282.8,176,281.7,174.1z"/>
	<path fill="#293E55" d="M228.5,16.6c-2.1,2.3-4.5,5.1-7.1,7.6c-23.4,23.5-46.9,46.9-70.3,70.4c-2.1,2.1-4.3,3.3-7.4,3.3
		c-4,0-6.5-2-8.1-5.3c-1.6-3.3-1.6-6.7,0.8-9.6c2.5-3,5.3-5.7,8-8.5c18.8-18.9,37.7-37.8,56.6-56.7c4.1-4.1,8.3-8.1,12.7-11.9
		c3-2.6,7.6-2.8,10.4-0.3C228,9,229.3,7.3,228.5,16.6z"/>
	<path fill="#293E55" d="M237.7,108c2.4-2.9,4.7-6,7.4-8.7c15.4-15.6,31-31.1,46.5-46.7c8.4-8.4,16.8-16.8,25.2-25.2
		c3.3-3.3,8.9-3.9,11.9-1.3c4.7,4.1,5.7,9.2,2.1,13.5c-3.5,4.2-7.5,8-11.3,11.9c-14,14.1-28,28.1-42,42.2
		c-7.2,7.2-14.3,14.6-21.8,21.6c-1.8,1.7-4.5,3.1-6.9,3.6c-4.3,0.8-7-2.1-9-5.6C239,111.9,238.6,110.2,237.7,108z"/>
	<path fill="#293E55" d="M175.6,113.4c-2.2,1.6-5.1,3.6-7.9,5.5c-4.9,0.3-8.9-0.6-11.1-5.4c-1.5-3.3-1.6-6.5,0.8-9.3
		c3.3-3.9,6.9-7.5,10.5-11.2c12.7-12.8,25.4-25.6,38.1-38.4c9.3-9.2,18.7-18.3,27.9-27.6c4.9-5,13.9-2.2,15.7,5.2
		c0.8,3.2-0.3,5.7-2.5,7.9c-11.3,11.5-22.6,23-34,34.4c-2,2-4.6,3.5-6.6,5.6c-4.2,4.3-8.2,8.9-12.4,13.3c-4.2,4.4-8.7,8.5-12.9,12.8
		C179.3,108.3,177.7,110.7,175.6,113.4z"/>
	<path fill="#293E55" d="M222.2,97.3c-0.6-0.6-1.4-1.2-2-1.9c-4-4-4.4-8.4-0.8-12.7c3-3.5,6.2-6.9,9.5-10.1
		c21.4-21.4,42.7-42.8,64.1-64.1c2.8-2.8,5.4-5.5,10-4.8c6.2,0.9,10.5,8.3,6.9,13.4c-3.1,4.5-7.1,8.3-10.9,12.2
		c-6.8,7-13.8,13.8-20.7,20.7c-10.6,10.6-21.1,21.2-31.6,31.8c-3.7,3.8-7.5,7.5-11.2,11.3C231.9,96.7,228.2,99.9,222.2,97.3z"/>
	<path fill="#293E55" d="M150.8,170.1c-10.7,0-20.7,0-31.1,0c0,4.4,0,8.4,0,12.7c9.9,0,19.8,0,29.9,0c0,3.9,0,7.7,0,11.8
		c-9.9,0-19.9,0-30,0c0,5,0,9.6,0,14.6c10.5,0,21,0,31.8,0c0,3.9,0,7.4,0,11.4c-16.3,0.3-32.5,0.3-48.7-0.1c0-20.8,0-41,0-61.4
		c16.1,0,31.9,0,48.2,0c0,1.9,0,3.5,0,5.2C150.8,166.1,150.8,167.8,150.8,170.1z"/>
	<path fill="#293E55" d="M21.8,183.8c0,12.3,0,24.6,0,37c-5.7,0-10.8,0-16.3,0c0-20.6,0-41.1,0-61.8c4.4,0,8.8-0.2,13.3,0.1
		c1.2,0.1,2.6,1.3,3.5,2.4c5.5,5.9,10.8,11.9,16.2,17.9c0.8,0.9,1.7,1.6,2.8,2.7c5.6-6,11.1-11.7,16.3-17.6
		c5.3-5.9,11.9-7.7,19.6-4.8c1,2.7,0.4,5.1-1.6,7.3c-6.6,7-13.2,14-19.8,21c-3.7,3.9-7.3,7.9-10.9,11.8c-1,1.1-2.1,2-3.6,3.4
		c-1.4-1.2-2.9-2.1-4.1-3.4c-4.9-5.3-9.8-10.7-14.7-16.1C22.3,183.6,22.1,183.7,21.8,183.8z"/>
	<path fill="#293E55" d="M388.1,174.7c-4.3-1.3-8.3-2.7-12.4-3.6c-3.7-0.8-7.4-1.4-11.1-1.6c-4.3-0.2-5.2,0.6-7.1,4.9
		c0.1,3.7,3.1,4.5,5.8,5.6c5.7,2.3,11.6,4.4,17.2,6.9c5.1,2.2,9,5.9,10.6,11.4c2.4,8.3-1.9,16.4-10.4,20c-4.9,2.1-9.8,2.9-15.2,3
		c-7.1,0.1-13.4-1.6-19.8-4c-3.8-1.4-4.7-2.9-4.5-6.9c0.1-2.4,0-4.8,0-7.7c2.2,0.9,4.3,1.5,6.1,2.5c6.9,4,14.3,5.2,22.1,4.3
		c3-0.4,4.5-2.6,5.8-5c-1.1-4.2-4.8-5.2-8.1-6.6c-6.1-2.6-12.4-4.8-18.3-7.8c-6.1-3.1-9-8.5-8.5-15.3c0.5-7,4.5-12.1,11.1-13.9
		c6.3-1.8,12.7-4.4,19.7-2.3c3.4,1,7.2,1.2,10.7,1.9c5.6,1.2,6.3,2.1,6.3,7.8C388.1,170.2,388.1,172.3,388.1,174.7z"/>
	<path fill="#293E55" d="M455.4,214.9c0-4.2,0-7.8,0-12.1c2,0.7,3.7,1.1,5.2,2c6.7,4,13.9,5.7,21.8,5.1c4.8-0.4,7.3-3.9,5.5-8.4
		c-0.1-0.3-0.1-0.7-0.1-0.7c-1.5-1-2.7-1.8-3.6-2.5c-1.3-0.5-2.3-0.8-3.4-1.2c-1.8-0.7-3.6-1.6-5.5-2.2c-3.4-1.2-7-2-10.4-3.5
		c-4-1.7-7.6-4.4-9.2-8.4c-3.4-8.7-1.5-18.2,9.4-22.3c4.8-1.8,10.2-2.9,15.3-2.8c5.9,0.1,11.7,1.8,17.5,3.1c3.4,0.8,4.4,2.7,4.3,6.3
		c0,2.4,0,4.8,0,7.8c-3.4-1.2-6.2-2.5-9.2-3.1c-5.1-1.1-10.3-1.9-15.4-2.4c-3.6-0.3-5.7,1.9-6.9,6.5c2,1.2,4.2,2.8,6.5,3.8
		c6.6,3,13.6,5.3,19.9,8.8c11.2,6.3,11.3,21.2,0.4,27.8c-2.4,1.5-5.5,1.7-8,3.1c-5.5,3-11.3,2.3-17,1.5
		C466.5,220.2,460.8,218.2,455.4,214.9z"/>
	<path fill="#293E55" d="M169.9,170.3c0-3.8,0-7.1,0-10.8c21.6,0,43.1,0,64.9,0c0,3.5,0,6.9,0,10.6c-7.9,0-15.6,0-23.7,0
		c0,16.7,0,33.2,0,50.3c-5.8,0-11.3,0-17.1,0c0-16.3,0-33,0-50.1C185.7,170.3,177.9,170.3,169.9,170.3z"/>
	<path fill="#2C7DEA" d="M354.9,57c-3.6,3.8-7.3,7.8-11.1,11.6c-8.6,8.7-17.2,17.3-25.9,25.8c-3.2,3.2-4.5,3.5-8.2,0.8
		c-2.6-1.9-4.8-4.4-6.8-7c-1.7-2.2-1.4-4.6,0.8-6.6c4.5-4.2,9.1-8.2,13.5-12.6c7.2-7.2,14.3-14.6,21.4-22c3.9-3.9,4.9-4.1,9.3-0.8
		C351.2,48.9,354.1,51.8,354.9,57z"/>
	<path fill="#2C7DEA" d="M335.9,119.4c-6.3-1.8-9.8-6.1-12.7-11.8c0.9-1.2,1.6-2.7,2.7-3.7c12.8-12.6,25.6-25.1,38.8-38
		c5.6,1.4,9,6.2,12.1,12c-1.2,1.6-2.2,3.4-3.6,4.8c-11.5,11.6-23.1,23.1-34.6,34.7C337.8,118,337,118.5,335.9,119.4z"/>
	<path fill="#293E55" d="M429,159.3c0,2.8,0,5.2,0,7.7c-3.9,2.8-9.2,3.5-12.5,7.1c0.1,0.3,0.2,0.6,0.3,0.8c3.8,0,7.7,0,11.9,0
		c0,15.2,0,30.2,0,45.5c-5.1,1.7-10.5-0.9-16,0.8c0-20.9,0-41.3,0-61.9C418,159.3,423.3,159.3,429,159.3z"/>
	<path fill="#2C7DEA" d="M76,184.5c1.4,6.1,1.4,33.6,0.1,36.1c-4.9,0-9.8,0-15,0c-0.1-1.2-0.2-2.2-0.2-3.3c0-5.2-0.2-10.4,0-15.6
		c0.1-1.7,0.9-3.6,2-4.9c3.2-3.8,6.7-7.4,10.2-10.9C73.7,185.2,74.9,185,76,184.5z"/>
	<path fill="#293E55" d="M231.8,277.7c-5-4.6-10-9.3-15.6-14.5c0,5.1,0,9.4,0,14c-1.2,0.3-2.4,0.6-4.1,1c0-8.1,0-15.8,0-24.5
		c5.6,5,10.7,9.6,16.5,14.7c0-5.5,0-10.3,0-15.2c1.6,0,2.7,0,4,0c0,8.1,0,16.1,0,24C232.3,277.5,232.1,277.6,231.8,277.7z"/>
	<path fill="#293E55" d="M354.9,277.9c-7.1,0-12.3-4.9-12.4-11.4c-0.1-7.2,6-13.5,12.8-13.3c6.1,0.1,12.2,6.5,12.1,12.9
		C367.3,273,362.1,277.9,354.9,277.9z M355.1,257.3c-4.8,0-8.7,4-8.8,8.7c-0.1,4.5,4.3,8.1,9,8.3c4.2,0.2,8.2-4.3,8.2-8.6
		C363.5,261.4,359.5,257.3,355.1,257.3z"/>
	<path fill="#293E55" d="M268.4,277.9c-6.3,0-12.1-5.3-12.1-11.1c0-7.3,6-13.6,12.9-13.6c6.1,0,12.4,6.8,12.3,13.5
		C281.5,273,275.7,277.9,268.4,277.9z M269.5,257.3c-5,0-9.1,3.9-9.2,8.9c-0.1,4.1,4.2,8.1,8.7,8.1c4.1,0,8.5-3.8,8.5-7.5
		C277.6,261.8,273.9,257.4,269.5,257.3z"/>
	<path fill="#293E55" d="M127.4,253.4c5.4,0,10.8,0,16.4,0c0,1.3,0,2.4,0,3.8c-4.1,0-8.1,0-12.4,0c0,2.2,0,4.2,0,6.6
		c3.9,0,8,0,12.4,0c0.1,1.5,0.1,2.7,0.2,4.2c-4.4,0-8.4,0-12.7,0c0,2.2,0,3.9,0,6c3.7,0,7.3,0,11.4,0c0.4,1,0.9,2.2,1.5,3.7
		c-5.8,0-11.1,0-16.8,0C127.4,269.5,127.4,261.6,127.4,253.4z"/>
	<path fill="#293E55" d="M167.5,253.3c1.3,0,2.4,0,3.7,0c0,3.6,0,7,0,11.4c3.9-4.5,7.2-8.3,10.5-12.1c0.3,0.2,0.6,0.4,0.9,0.6
		c1.6,0,3.3,0,5.4,0c-4.4,4.2-8.5,8.1-12.9,12.3c4.2,4.2,7.8,7.8,11.7,11.7c-4.2,1.9-6.1-0.7-8.2-2.7c-2.1-2-4-4.2-6-6.3
		c-0.3,0.1-0.6,0.2-0.9,0.3c0,2.9,0,5.8,0,9c-1.6,0.1-2.7,0.2-4.3,0.3C167.5,269.6,167.5,261.7,167.5,253.3z"/>
	<path fill="#293E55" d="M90.9,257.3c-2.9,0-5.5,0-8.3,0c0-1.4,0-2.6,0-3.9c6.8,0,13.5,0,20.4,0c0.2,1.2,0.4,2.4,0.7,4
		c-2.9,0-5.4,0-8.2,0c0,6.8,0,13.4,0,20.3c-1.6,0-2.9,0-4.5,0C90.9,270.9,90.9,264.2,90.9,257.3z"/>
	<path fill="#293E55" d="M309,273.8c4.3,0,8.1,0,12.3,0c0.3,1.4,0.5,2.6,0.8,3.9c-5.6,0-10.9,0-16.6,0c0-8.1,0-16.1,0-24.3
		c1.1,0,2.2,0,3.6,0C309,260.1,309,266.6,309,273.8z"/>
	<path fill="#293E55" d="M396.2,253.3c1.3-0.1,2.3-0.2,3.7-0.3c0,6.8,0.3,13.3-0.1,19.8c-0.2,3-3.1,4.9-6.3,5c-2,0.1-4.1,0-6.4,0
		c0-1.4,0-2.5,0-4.1c2.7,0,5.3,0,7.7,0c2.5-3.4,1.2-6.9,1.4-10.2C396.4,260.3,396.2,256.9,396.2,253.3z"/>
	<path fill="#293E55" d="M424.3,277.6c0-4.2,0-8.3,0-12.6c1.3-0.1,2.4-0.1,3.8-0.2c0,4.3,0,8.4,0,12.8
		C426.9,277.6,425.7,277.6,424.3,277.6z"/>
	<path fill="#293E55" d="M428.1,253.3c0,2.4,0,4.4,0,6.7c-1.4,0-2.5,0-3.7,0c0-2.2,0-4.3,0-6.7C425.8,253.3,426.7,253.3,428.1,253.3
		z"/>
	<path fill="#FDFEFD" d="M281.7,174.1c1.1,1.9,2,3,2.6,4.3c2.8,6.1,5.5,12.3,8.4,18.9c-6.9,0-13.3,0-20.5,0
		C275.3,189.5,278.3,182.1,281.7,174.1z"/>
	<path fill="#FDFEFD" d="M355.1,257.3c4.3,0,8.3,4,8.3,8.4c0,4.3-4,8.8-8.2,8.6c-4.7-0.2-9.1-3.8-9-8.3
		C346.4,261.3,350.3,257.3,355.1,257.3z"/>
	<path fill="#FDFEFD" d="M269.5,257.3c4.4,0,8.1,4.4,8.1,9.5c-0.1,3.7-4.4,7.5-8.5,7.5c-4.5,0-8.8-4-8.7-8.1
		C260.4,261.2,264.5,257.3,269.5,257.3z"/>
</g>
</svg>
