<?xml version="1.0" encoding="utf-8"?>
<!-- Generator: Adobe Illustrator 26.0.0, SVG Export Plug-In . SVG Version: 6.00 Build 0)  -->
<svg version="1.1" id="katman_1" xmlns="http://www.w3.org/2000/svg" xmlns:xlink="http://www.w3.org/1999/xlink" x="0px" y="0px"
	 viewBox="0 0 533.7 179.2" enable-background="new 0 0 533.7 179.2" xml:space="preserve">
<g>
	<path fill="#1475B9" d="M419.3,168c-0.2-9.1,0-18.3-0.1-27.4c0-1.8,0.3-4-2.1-4.5c-2.6-0.5-5.4-1-7.8,0.4c-1.5,0.9-0.8,2.5,0.5,3.2
		c4,2.1,4.1,5.7,4.1,9.4c0,6.3,0,12.6,0,18.9c0,3.9-1.1,6.9-5.4,7.7c-1.9,0.3-3.1,1.8-4.4,3.1c5,0,10,0,15,0
		C417.9,175.2,419.3,171.6,419.3,168z"/>
	<path fill="#1475B9" d="M421.1,136c0-1.3-0.3-2.2-1.9-2.2c-3.7,0.1-7.3,0-11,0c-0.6,0-1.7,0.3-1.7,0.6c-0.2,1.9-0.4,4-0.1,5.8
		c0.3,1.6,2,1.5,3.3,1.3c2.1-0.2,2.4,0.9,2.4,2.7c-0.1,9,0,17.9,0,26.9c0,2.6-0.1,2.6-2.9,2.7c-0.7,0-1.3,0-2,0
		c-3,0.1-3,0.1-3.2,3.4c0,0.5,0,1,0,1.5c1.3-1.3,2.5-2.7,4.4-3.1c4.4-0.7,5.4-3.8,5.4-7.7c0-6.3,0-12.6,0-18.9
		c0-3.7-0.1-7.4-4.1-9.4c-1.3-0.7-2-2.3-0.5-3.2c2.4-1.5,5.2-1,7.8-0.4c2.4,0.5,2.1,2.7,2.1,4.5c0.1,9.1-0.1,18.3,0.1,27.4
		c0.1,3.6-1.4,7.2-0.2,10.8c0.7-2,1.9-4,1.9-6C421.1,160.6,421.1,148.3,421.1,136z"/>
	<path fill="#B3B2B4" d="M160.2,31.1c-9.8-7-20.8-9.6-33-7.3c-9.7,1.8-17.9,6-25,12.6c-3.3,3.1-6.1,6.5-8.4,10.3
		c-0.9,1.5-1.5,1.3-2.8-0.2c-3.2-3.7-6.4-7.6-9.9-11.1c-8.2-8-18.4-11.7-29.6-12.4c-3.4-0.2-6.8,0-10.3,0.8
		c-4.8,1.2-9.3,2.7-13.6,5.2c-4.9,2.8-9.1,6.5-12.2,11.2c-3.7,5.5-6.4,11.5-7.1,18c-1,8.8,0.5,17.4,5.1,25.1c3,5,7,9.3,12.1,12.1
		c5.9,3.2,12.1,5,19.2,3.5c7.3-1.5,12.4-5.5,16.6-11.3c3.1-4.3,3.2-9.2,2.9-14.2c-0.2-4.6-1.6-8.6-5.7-11.4
		c-0.2,0.5-0.3,0.8-0.4,1.1c-0.7,4.4-2.9,7.1-6.4,7.7c-4.9,0.9-9.4-0.7-11.2-4.3c-0.7-1.4-1.4-2.9-0.9-5c1.8-6.8,10.3-9,15-6.9
		c5.4,2.4,8.9,6.5,10.9,11.5c2.6,6.3,4.2,12.9,5.6,19.6c1.4,7.2,4.3,13.8,10.1,18.6c3.5,2.9,7.6,4.9,12.2,4.3
		c5.8-0.9,10.8-3.3,14.1-8.6c2-3.2,3.4-6.7,4.5-10.2c2.1-6.8,3.8-13.8,6.1-20.5c1.9-5.4,4.2-10.5,9.6-13.8c4.6-2.8,11.2-2,15,1.6
		c4,3.8,2.9,10.3-2.2,12.8c-4.9,2.4-12.3,0.8-13.7-5.2c-0.2-0.9-0.9-1.7-1.6-3.1c-0.8,1.4-1.3,2.3-1.8,3.1
		c-5.9,9.1-4.3,19.4,2.7,26.5c7.1,7.4,16.2,10.3,26.4,7.2c11.9-3.6,18.8-12.2,22.3-23.6c1.7-5.5,2.4-11.2,1.3-17.3
		C174.4,46.4,169.1,37.5,160.2,31.1z M156.2,82.3c-5.3,4.6-11.4,6.2-18.3,3.7c-2.9-1.1-5.1-2.8-5.8-6c-0.3-0.2-0.5-0.3-0.8-0.5
		c0.3,0.2,0.5,0.3,0.8,0.5c3.1,0.8,6,2.3,9.5,2.1c7.6-0.4,14-6.3,15.7-13.8c0.9-3.9,0.2-7.5-0.4-11c-0.8-4.7-4.4-8.2-8.2-10.8
		c-9.4-6.7-23.5-5.7-32.1,2.4c-7,6.6-9.8,15.3-12.5,24C102,79.4,100,86,97.8,92.6c-0.5,1.6-1.2,3.5-3.7,3.4
		c-2.5-0.1-5.1,0.5-6.6-2.3c-0.5-0.9-1-1.7-1.3-2.6c-2.1-7-3.8-14.1-6.2-20.9c-2.6-7.5-5.1-15.3-11.2-20.9c-9.8-9.1-24.7-9.8-35.4-1
		c-3.8,3.2-5.3,7.5-6.2,12c-1.7,8.4,2.6,16.8,10.3,20.6c4.2,2.1,8.6,1.8,12.9,0.2c0.9-0.3,1.8-0.6,2.7-0.9c0,0,0,0,0,0
		c0.2-0.3,0.3-0.5,0.5-0.8c-0.2,0.3-0.3,0.5-0.5,0.8c0,0,0,0,0,0c-1.2,4.7-5.1,6.2-9.2,6.9c-5.8,1-11.2-0.6-15.6-4.4
		c-3.7-3.1-6.2-7.6-6.9-12.2c-0.8-5.1-1.1-10.5,0.6-15.7c3.6-10.8,14.3-18.3,25.7-18.7c8.6-0.3,16,2.2,23,7
		c4.1,2.8,6.8,6.5,9.2,10.7c1.4,2.4,2.5,5,3.6,7.5c0.6,1.4,1.3,2,3,2c3.7-0.2,7.3-0.1,11,0c1.9,0,3.1-0.6,3.7-2.5
		c0.5-1.5,1.5-2.9,2.2-4.4c1.8-4.3,4.5-8,8-11.1c6.3-5.6,13.5-8.9,22.1-9.1c5.5-0.1,10.9,0.3,15.7,3.1c9,5.4,14.6,12.9,14.9,23.9
		C164.4,70.7,161.9,77.2,156.2,82.3z"/>
	<path fill="#1A4074" d="M327,95c0,1.2,0.5,1.8,1.8,1.8c4,0,8-0.1,12,0c1.8,0,2.3-0.7,2.3-2.4c-0.1-5.3-0.1-10.6,0-16
		c0-1.6,0.6-3.2,1-4.8c0.1-0.3,0.7-0.8,1.1-0.7c0.3,0,0.7,0.6,0.9,1c0.7,1.8,1.4,3.7,2.1,5.6c1.7,4.8,3.4,9.6,5.1,14.5
		c0.7,1.9,1.7,3,4,2.8c3.6-0.3,7.3-0.1,11-0.1c1.6,0,2.1-0.6,1.4-2.1c-0.4-0.9-0.7-1.8-1-2.8c-4-10.3-7.8-20.7-12-30.9
		c-1.6-3.9-1.8-7.3,0.4-11.2c3.9-7.1,7.2-14.5,10.7-21.8c1.2-2.4,0.8-3-1.7-3c-3.3-0.1-6.7,0.1-10-0.1c-2.2-0.1-3.4,0.8-4.1,2.7
		c-0.8,2-1.8,3.9-2.7,5.9c-1.7,3.7-3.4,7.5-5.1,11.2c-0.3,0-0.7,0-1,0c0-1.6,0-3.3,0-4.9c0-4.2,0-8.3,0-12.5c0-1.7-0.5-2.4-2.3-2.4
		c-4,0.1-8,0-12,0c-1.3,0-1.8,0.5-1.8,1.8c0,0.8,0,1.7,0,2.5c0,21.1,0,42.3,0,63.4C327,93.4,327,94.2,327,95z"/>
	<path fill="#1A4074" d="M483.8,31c0-0.7,0-1.3,0-2c-0.1-3.8-0.2-4-3.9-4c-2.5,0-5,0-7.5,0c-3.2,0-3.3,0.1-3.3,3.3
		c0,5.5,0,10.9,0,16.5c-2.2-1.1-4-2.3-6-3.1c-6.8-2.6-13.2,0.5-14.8,7.3c-0.6,2.5-1,5.2-1,7.9c-0.1,8.8-0.1,17.6,0,26.5
		c0,2.6,0.3,5.3,1.1,7.8c1,3.4,3.3,6,6.9,6.6c5.1,0.9,10,0.2,13.4-4.4c0.9,3.6,0.9,3.6,4.2,3.6c2.7,0,5.3,0.1,8,0
		c2.5-0.1,2.8-0.5,2.9-2.9c0.1-1,0-2,0-3C483.8,70.9,483.8,51,483.8,31z M469,82.3c-0.1,2.6-1.1,3.6-3.1,3.6c-2,0-3-1-3-3.7
		c-0.1-8.6-0.1-17.3-0.1-25.9c0-2.6,1.1-3.6,3.1-3.5c2.1,0,3,1,3.1,3.6c0.1,4.5,0,9,0,13.5C469.1,74,469.2,78.2,469,82.3z"/>
	<path fill="#1A4074" d="M265.2,109.9c3.2-0.1,6.3-0.1,9.5,0c2.1,0.1,2.5-0.9,2.5-2.7c-0.1-4.3,0-8.6,0-13.3
		c0.9,0.6,1.2,0.7,1.4,0.9c8.4,6.7,17.6,3.5,19.9-6.9c0.2-1.1,0.4-2.3,0.4-3.4c0-10,0-20,0-29.9c0-3.4-1-6.5-2.7-9.4
		c-1.6-2.6-3.8-4-6.9-4.2c-5-0.4-9,1.4-11.9,5.7c-0.5-4.7-0.5-4.7-4.8-4.7c-2,0-4,0-6,0c-3.5,0-3.5,0.1-3.5,3.6
		c0,16.8,0,33.6,0,50.4c0,3.8,0,7.7,0,11.5C263,109.1,263.4,110,265.2,109.9z M277.1,57c0.1-2.8,1.2-4.1,3.2-4
		c1.9,0.1,3.4,1.6,3.5,4.1c0.1,8.3,0,16.6,0,24.9c0,0.5-0.1,1-0.2,1.5c-0.5,1.8-2.5,3.6-3.8,3.2c-1.7-0.6-2.8-1.8-2.8-3.7
		c0-4.5,0-9,0-13.4c0,0,0,0,0,0C277.1,65.3,277,61.1,277.1,57z"/>
	<path fill="#1A4074" d="M220.3,57.6c0.1,1.7,0.5,2.4,2.3,2.4c3.5-0.1,7-0.1,10.5,0c1.9,0.1,2.2-0.9,2.2-2.4c0-1.5,0-3,0.4-4.4
		c0.5-1.5,1.8-2.5,3.5-2.1c1.5,0.4,1.9,1.6,2,3c0.4,3.6-0.9,6.2-4.1,7.8c-2.4,1.2-4.9,2.1-7.2,3.2c-4.2,2.1-8.6,4.3-9,9.6
		c-0.4,4.7-0.8,9.7,0,14.3c1.4,7.6,7.2,10.7,14.5,8.6c1.6-0.4,3-1.4,4.4-2.2c2-1,2.6,1.9,4.7,1.5c2.9-0.5,6-0.1,9-0.1
		c2.6-0.1,2.7-0.1,2.7-2.9c0-6.5,0-13,0-19.5c0,0,0,0,0,0c0-6.5,0.1-13,0-19.5c-0.1-6.6-3.9-11.2-10.1-13.1
		c-3.6-1.1-7.2-1.3-10.8-0.9C224.7,42.3,219.9,49.2,220.3,57.6z M241,85.4c0,1.7-1.1,2.7-2.9,2.7c-1.8,0-2.8-1.1-2.9-2.7
		c-0.1-3.1-0.4-6.3,0.1-9.4c0.4-2.9,2.4-4.9,5.7-6.1C241.1,75.2,241.1,80.3,241,85.4z"/>
	<path fill="#1A4074" d="M194.3,79.1c-0.4,5-0.1,10-0.1,15c0,2.6,0.1,2.7,2.8,2.7c3.7,0.1,7.3,0,11,0c1.8,0,2.3-0.7,2.3-2.4
		c-0.1-6,0.2-12-0.1-18c-0.3-6.9,0.9-13.4,3.3-19.9c3.6-9.4,6.6-19,9.9-28.5c1.1-3.1,1-3.2-2.4-3.2c-3.3,0-6.7,0-10,0
		c-3.6,0-3.6,0-4.6,3.6c-1.2,4.7-2.4,9.5-3.8,15.1c-0.7-2.1-1.3-3.3-1.6-4.5c-1.1-4.1-2-8.3-3.1-12.4c-0.2-0.7-0.9-1.6-1.4-1.7
		c-4.8-0.1-9.6-0.1-14.5,0c-0.4,0-1,1.2-1,1.7c0,0.9,0.5,1.9,0.9,2.8c2.6,7.5,4.9,15.1,7.8,22.4C193.2,60.8,195,69.7,194.3,79.1z"/>
	<path fill="#1A4074" d="M440.1,89.8c1.6-3.9,0.9-7.8,0.9-11.8c0-0.4-1.2-1-1.8-1.1c-3.2-0.1-6.3-0.1-9.5,0c-2.7,0-2.7,0.1-2.8,2.8
		c-0.1,1.8,0.1,3.7-0.1,5.5c-0.3,2.3-1.7,3.1-3.8,2.9c-2.2-0.2-2.1-1.8-2.1-3.3c0-3.3-0.1-6.7,0-10c0-2.8,0.1-2.8,2.7-2.9
		c5-0.1,10-0.1,15,0c1.9,0,2.7-0.5,2.7-2.5c-0.1-4.8,0-9.6-0.1-14.5c0-5.7-3.6-11-10.4-12.9c-4.5-1.3-9.1-1.3-13.7-0.1
		c-7.1,1.8-11.1,7.7-11,13.5c0.1,4.8,0,9.6,0,14.5c0,0,0,0,0,0c0,4.5-0.1,9,0,13.5c0.1,7.1,3.4,11.3,10.1,13.6
		c4.4,1.5,8.9,1.4,13.3,0.6C433.9,96.7,438.1,94.8,440.1,89.8z M420.3,60.3c-0.2-2-0.2-4,0-5.9c0.2-1.6,0.7-3.3,2.9-3.3
		c2.1,0,2.9,1.4,3.2,3.1c0.3,1.3,0.3,2.6,0.4,3.2c0,1.4,0,2.1,0,2.7c0.1,1.2-0.4,1.9-1.7,1.9c-1.2,0-2.4,0.2-3.5-0.1
		C421.1,61.7,420.3,60.8,420.3,60.3z"/>
	<path fill="#1A4074" d="M385.3,96.8c2.8-0.1,2.9-0.1,2.9-3.2c0-8.8,0-17.7,0-26.5c0-8.5,3.5-11,10.4-10.4c0.2,0,0.3,0,0.5,0
		c1.5,0.2,2.1-0.3,2.1-1.9c0-4,0-8,0-12c0-1.5-0.6-2.1-2.1-2c-4.6,0.2-8.1,2.4-11.6,6.6c-0.2-1.5-0.3-2.2-0.3-2.8
		c0.3-2.4-1-2.8-3-2.7c-2.3,0.1-4.7,0-7,0c-3.1,0-3.1,0.1-3.1,2.9c0,16.3,0,32.6,0,49c0,2.8,0.1,2.8,2.7,2.9
		C379.6,96.9,382.5,96.9,385.3,96.8z"/>
	<path fill="#1A4074" d="M319.9,93.8c0-8,0-15.9,0-23.9c0-5.6,0-11.3,0-16.9c0-3.5-0.2-6.9-0.3-10.4c-3.6-0.2-7.2-0.5-10.8-0.5
		c-3.5-0.1-3.5,0-3.6,3.5c0,13.3,0,26.6,0,39.8c0,3.6,0.2,7.2,0.3,10.9c3.8,0.2,7.5,0.5,11.3,0.5C319.8,96.9,319.9,96.8,319.9,93.8z
		"/>
	<path fill="#1475B9" d="M280.1,136.2c0.4-0.5,0.6-1.1,0.9-1.7c-0.6-0.2-1.1-0.6-1.7-0.6c-1.8-0.1-3.7,0.1-5.5-0.1
		c-2.5-0.3-4,0.8-5.4,2.7c-2.4,3.1-4.9,6.2-7.4,9.2c-0.3-0.1-0.6-0.2-0.9-0.2c0-6.5,0-12.9,0-19.4c0-5.9,0.9-5.3-5.3-5.3
		c-3.5,0-3.5,0.1-3.6,3.5c0,12.6-0.1,25.3,0,37.9c0,6.4-1.2,5.6,5.9,5.6c2.8,0,2.8-0.1,2.9-3.2c0-2.8-0.1-5.4,2-7.9
		c3.3-3.8,3.1-4,6,0.2c2,3,4.7,5.7,4.3,9.7c0,0.3,0.8,0.9,1.3,1c6.9,1.3,8.5-0.4,6.3-7.1c-0.5-1.7-1.6-3.3-2.5-4.8
		c-1.3-2.1-2.7-4.1-4.1-6.2c-2.1-3.3-2.1-3.3,0.6-6.3C276,141,278,138.6,280.1,136.2z"/>
	<path fill="#1A4074" d="M504.1,69.4c0-6.7,0-13.3,0-20c0-1.7-0.1-3.3,0-5c0.1-1.6-0.5-2.4-2.3-2.4c-3.3,0.1-6.7,0-10,0
		c-1.3,0-1.8,0.6-1.8,1.8c0,1.2,0,2.3,0,3.5c0,14.8,0,29.6,0,44.4c0,1,0.1,2,0,3c-0.1,1.5,0.6,2.1,2,2.1c3.2,0,6.3-0.1,9.5,0
		c2,0.1,2.6-0.6,2.6-2.5C504.1,86.1,504.1,77.7,504.1,69.4z"/>
	<path fill="#1475B9" d="M306.9,133.8c-3.7-1.2-7.1-0.6-10.6,0.6c-0.9,0.3-2.2,0.7-2.7,0.3c-1.7-1.3-3.5-0.7-5.3-0.8
		c-3-0.1-3.1,0-3.1,2.9c0,4.7,0,9.3,0,14c0,4.5,0,9,0,13.5c0,3.6,0,3.6,3.4,3.6c6.3,0,5.4,0.7,5.5-5.1c0-5.1-0.1-10.3,0-15.5
		c0.1-4.1,1.8-6,5.5-6.3c4.4-0.4,6.5,1.3,6.5,5.9c0.1,5.5,0,11,0,16.4c0,4.9-0.5,4.6,4.5,4.6c0.5,0,1,0,1.5,0
		c2.7-0.1,2.8-0.1,2.8-2.8c0-7,0.1-14,0-20.9C314.9,138.6,312.2,135.5,306.9,133.8z"/>
	<path fill="#1475B9" d="M349.1,144.3c-0.2-5.8-4.7-10.3-10.5-10.5c-3-0.1-6-0.1-9,0c-5.5,0.2-10.1,4.4-10.5,9.9
		c-0.3,4.8-0.3,9.6,0,14.4c0.4,5.5,5.1,9.6,10.7,9.7c2.7,0.1,5.3,0.1,8,0c6.7-0.1,11.1-4.5,11.3-11.2c0-2,0-4,0-6c0,0,0,0,0,0
		C349.1,148.6,349.2,146.4,349.1,144.3z M341.1,156.4c-0.1,3-1.3,4.1-4.3,4.3c-2,0.1-4,0.1-6,0c-2.3-0.2-3.6-1.5-3.7-3.8
		c-0.1-4-0.1-8,0-12c0.1-2.6,1.4-3.7,4.1-3.9c9.4-0.7,9.9-0.3,9.9,9.4C341.1,152.4,341.2,154.4,341.1,156.4z"/>
	<path fill="#1475B9" d="M394.3,133.8c-3.1,0.2-6.3-0.1-9.5,0.1c-5.4,0.3-9.5,4.5-9.8,9.9c-0.1,2.3,0,4.6,0,7c0,2.3-0.1,4.6,0,7
		c0.2,5.5,4.7,10,10.2,10.2c2.7,0.1,5.3-0.2,8,0.1c5.9,0.5,11.1-3.6,11.7-11.4c0.4-4.1,0.3-8.3,0-12.4
		C404.5,139,400,133.5,394.3,133.8z M396.9,156.9c-0.1,2.3-1.4,3.5-3.7,3.8c-0.2,0-0.3,0-0.5,0c-9.3,0.7-9.7,0.3-9.7-10.1
		c0-2-0.1-4,0-6c0.1-3,0.8-3.6,3.9-3.7c2.2-0.1,4.3-0.1,6.5,0c2,0.1,3.4,1.5,3.5,3.5C397,148.6,397,152.8,396.9,156.9z"/>
	<path fill="#1475B9" d="M223.1,129c0.2,0,0.3,0,0.5,0c4.9,0,4.5,0.6,4.6-4.5c0-0.3,0-0.7,0-1c-0.1-2.6-0.1-2.7-2.8-2.7
		c-8.5,0-17,0-25.5,0c-6.2,0-6.4,0.3-5.7,6.4c0.1,1.2,0.6,1.8,1.8,1.8c1.7,0,3.3,0,5,0c6.6-0.1,6.1,0,6.1,5.8c0,4.5,0,9,0,13.5
		c0,5.2,0,10.3,0,15.5c0,4.3-0.2,4.1,4,4.1c0.5,0,1,0,1.5,0c2.6-0.1,2.7-0.1,2.7-2.8c0-9.5,0-19,0-28.4
		C215.3,128,214.3,129.1,223.1,129z"/>
	<path fill="#1475B9" d="M369.9,160c-2.9-0.3-2.8-0.2-2.8-3.3c0-5.3,0-10.7,0-16c0-2.8,0.1-5.7,0-8.5c-0.1-3.8-0.4-7.5-0.6-11.3
		c-4.1-0.1-8.3-0.1-12.4-0.2c-0.4,0-1.3,0.3-1.3,0.5c-0.2,1.9-0.4,3.9-0.3,5.8c0,0.4,1.6,0.8,2.5,0.9c3.2,0.4,3.2,0.3,3.3,3.4
		c0,6.8,0,13.7,0,20.5c0,2.2,0.1,4.3-0.1,6.5c0,0.6-0.8,1.3-1.4,1.5c-0.7,0.3-1.6,0.1-2.5,0.1c-2.1-0.1-3.2,0.7-3.1,2.9
		c0,1,0.1,2,0,3c-0.1,1.5,0.7,2,2.1,2c5.8,0,11.7,0,17.5,0c0.6,0,1.7-0.3,1.7-0.6c0.2-1.9,0.4-3.9,0.1-5.8
		C372.5,160.8,370.9,160.1,369.9,160z"/>
	<path fill="#1475B9" d="M442.2,160c-1.8,0.1-2.3-0.7-2.2-2.4c0.1-3.5,0-7,0-10.5c0-3.7-0.1-7.3,0-11c0-1.7-0.7-2.3-2.4-2.3
		c-3.5,0.1-7,0-10.5,0.1c-0.6,0-1.7,0.4-1.7,0.6c-0.2,1.9-0.4,4,0,5.9c0.3,1.6,2.1,1.4,3.4,1.3c1.7-0.1,2.4,0.6,2.3,2.3
		c-0.1,4.7-0.1,9.3,0,14c0,1.5-0.7,2.1-2.1,2c-0.5,0-1,0-1.5,0c-3.1,0.2-3.3,0.4-3.4,3.5c0,0.8,0,1.7,0,2.5
		c-0.1,1.2,0.5,1.9,1.7,1.9c6,0,12,0,18,0c0.6,0,1.7-0.4,1.7-0.7c0.1-2,0.4-4,0-5.9C445.3,159.7,443.6,159.9,442.2,160z"/>
	<path fill="#1475B9" d="M248.1,144.3c-0.2-5.8-4.7-10.3-10.5-10.5c-3-0.1-6,0-9,0c-3.1,0-5.4,1.3-7.4,3.5c-2.1,2.4-2,3.6,0.6,5.8
		c0.9,0.7,1.9,1.7,2.9,1.7c0.8,0,1.5-1.4,2.3-2.1c0.6-0.5,1.3-1.3,2-1.3c3-0.2,5.9-0.3,8.9-0.1c2,0.2,2.3,1.9,2.2,3.8
		c-0.1,2.2-1.6,1.7-2.9,1.7c-0.7,0-1.3-0.1-2,0.1c-0.4,0.1-1.1,0.4-1.1,0.7c-0.1,0.6,0,1.5,0.4,1.8c3.7,2.8,7.4,5.6,11.2,8.3
		c1.1,0.8,2.3,0.1,2.4-1.4c0.1-2.2,0-4.3,0-6.5C248.1,148,248.2,146.2,248.1,144.3z"/>
	<path fill="#60C5DF" d="M244.2,162.6c-2.2-1.4-4-3.7-7.4-2c-1.7,0.9-4.3,0.3-6.4,0.1c-1.1-0.1-2.1-0.8-3-1.4
		c-0.7-0.5-0.3-2.2,0.6-2.4c1.1-0.2,2.3,0,3.5-0.2c1.3-0.2,1.7-1.5,0.5-2.4c-2.3-1.9-4.7-3.6-7-5.4c-1.2-0.9-2.2-2-3.5-2.7
		c-1.7-1-3.3-0.1-3.3,1.9c-0.1,3-0.4,6,0.1,9c0.6,4.5,2.2,8.8,7.3,10c2.7,0.7,5.5,0.9,8.2,1.3c0-0.1,0-0.3,0.1-0.4c1.7,0,3.3,0,5,0
		c2.3,0,4.1-1.1,5.6-2.7C245.2,164.2,245.3,163.2,244.2,162.6z"/>
	<path fill="#1A4074" d="M490.6,35.8c2.3,0.2,4.6,0.3,6.9,0.5c6.7-0.1,6.7-0.1,6.7-7c0-0.3,0-0.7,0-1c-0.1-3.3-0.1-3.3-3.2-3.4
		c-2.5,0-5,0-7.5,0c-3.4,0-3.5,0.1-3.4,3.6C490.1,31,490.4,33.4,490.6,35.8z"/>
	<path fill="#1475B9" d="M434.6,119.3c-3.4,0.6-3.4,0.6-3.4,4.1c0,1-0.1,2,0.1,3c0.2,0.7,0.7,1.9,1.2,1.9c2.2,0.1,4.6,0.3,6.7-0.3
		c0.8-0.2,0.9-2.5,1-2.8C440.1,119.4,439,118.5,434.6,119.3z"/>
	<path fill="#1475B9" d="M415.6,119.8c-3.5,0-3.5,0.1-3.5,3.6c-0.1,4.7,0.6,5.4,5.4,5.3c0.7,0,1.4,0.1,1.9-0.2
		c0.7-0.4,1.6-1.1,1.6-1.6c0.1-2.1-0.1-4.3-0.1-6.4C419.1,120.2,417.4,119.8,415.6,119.8z"/>
	<polygon fill="#E3E3E4" points="53.1,79.9 53.1,79.9 53.1,79.9 	"/>
	<path fill="#E3E3E4" d="M53.6,79.1c-0.2,0.3-0.3,0.5-0.5,0.8l0,0C53.3,79.7,53.4,79.4,53.6,79.1z"/>
	<path fill="#E3E3E4" d="M131.3,79.5c0.3,0.2,0.5,0.3,0.8,0.5l0,0C131.8,79.8,131.6,79.6,131.3,79.5z"/>
</g>
<g>
</g>
<g>
</g>
<g>
</g>
<g>
</g>
<g>
</g>
<g>
</g>
<g>
</g>
<g>
</g>
<g>
</g>
<g>
</g>
<g>
</g>
<g>
</g>
<g>
</g>
<g>
</g>
<g>
</g>
</svg>
